<?xml version="1.0" encoding="utf-8"?>
<!-- Generator: Adobe Illustrator 27.5.0, SVG Export Plug-In . SVG Version: 6.00 Build 0)  -->
<svg version="1.1" xmlns="http://www.w3.org/2000/svg" xmlns:xlink="http://www.w3.org/1999/xlink" x="0px" y="0px"
	 viewBox="0 0 500 500" style="enable-background:new 0 0 500 500;" xml:space="preserve">
<g id="BACKGROUND">
	<g>
		<rect x="-0.066" style="fill:#C7E3FF;" width="500" height="500"/>
	</g>
</g>
<g id="OBJECTS">
	<g>
		
			<ellipse transform="matrix(0.8273 -0.5618 0.5618 0.8273 -35.7259 214.6564)" style="fill:#ABD5FF;" cx="331.206" cy="165.425" rx="57.245" ry="100.3"/>
		<g>
			<g>
				<polygon style="fill:#7CB8F2;" points="451.659,291.312 450.179,292.074 356.204,236.408 354.724,96.627 356.204,95.865 
					356.698,96.149 451.659,150.77 				"/>
			</g>
			<g>
				<polygon style="fill:#FFFFFF;" points="450.179,292.074 354.724,237.17 354.724,96.627 450.179,151.532 				"/>
				<g>
					<g>
						<polygon style="fill:#C7E3FF;" points="442.051,179.82 362.851,134.266 362.851,130.326 442.051,175.88 						"/>
						<polygon style="fill:#FF6868;" points="406.946,159.628 362.851,134.266 362.851,130.326 406.946,155.688 						"/>
						<polygon style="fill:#C7E3FF;" points="442.051,191.001 362.851,145.447 362.851,141.507 442.051,187.061 						"/>
						<polygon style="fill:#FF6868;" points="423.502,180.333 362.851,145.447 362.851,141.507 423.502,176.392 						"/>
						<polygon style="fill:#C7E3FF;" points="442.051,202.182 362.851,156.628 362.851,152.688 442.051,198.242 						"/>
						<polygon style="fill:#FF6868;" points="396.501,175.983 362.851,156.628 362.851,152.688 396.501,172.043 						"/>
						<polygon style="fill:#C7E3FF;" points="442.051,213.363 362.851,167.809 362.851,163.869 442.051,209.423 						"/>
						<polygon style="fill:#FF6868;" points="431.445,207.263 362.851,167.809 362.851,163.869 431.445,203.323 						"/>
					</g>
					<g>
						<polygon style="fill:#C7E3FF;" points="442.051,236.902 362.851,191.347 362.851,187.407 442.051,232.962 						"/>
						<polygon style="fill:#FF9100;" points="406.946,216.71 362.851,191.347 362.851,187.407 406.946,212.77 						"/>
						<polygon style="fill:#C7E3FF;" points="442.051,248.083 362.851,202.528 362.851,198.588 442.051,244.143 						"/>
						<polygon style="fill:#FF9100;" points="423.502,237.414 362.851,202.528 362.851,198.588 423.502,233.474 						"/>
						<polygon style="fill:#C7E3FF;" points="442.051,259.264 362.851,213.71 362.851,209.769 442.051,255.324 						"/>
						<polygon style="fill:#FF9100;" points="396.501,233.065 362.851,213.71 362.851,209.769 396.501,229.124 						"/>
						<polygon style="fill:#C7E3FF;" points="442.051,270.445 362.851,224.891 362.851,220.95 442.051,266.505 						"/>
						<polygon style="fill:#FF9100;" points="431.445,264.345 362.851,224.891 362.851,220.95 431.445,260.405 						"/>
					</g>
				</g>
				
					<line style="fill:none;stroke:#7CB8F2;stroke-width:1.0669;stroke-miterlimit:10;" x1="358.15" y1="109.321" x2="446.752" y2="160.283"/>
				<g>
					
						<ellipse transform="matrix(0.7989 -0.6015 0.6015 0.7989 8.6452 240.5825)" style="fill:none;stroke:#7CB8F2;stroke-width:1.0669;stroke-miterlimit:10;" cx="364.069" cy="107.364" rx="1.495" ry="2.637"/>
					
						<ellipse transform="matrix(0.7989 -0.6015 0.6015 0.7989 7.4345 246.5771)" style="fill:none;stroke:#7CB8F2;stroke-width:1.0669;stroke-miterlimit:10;" cx="372.428" cy="112.172" rx="1.495" ry="2.637"/>
					
						<ellipse transform="matrix(0.7989 -0.6015 0.6015 0.7989 6.2238 252.5718)" style="fill:none;stroke:#7CB8F2;stroke-width:1.0669;stroke-miterlimit:10;" cx="380.786" cy="116.979" rx="1.495" ry="2.637"/>
				</g>
			</g>
		</g>
		<g>
			<g>
				<path style="fill:#1E7BD4;" d="M38.026,319.59c0.59,2.022,1.522,3.702,2.747,5.02l-8.405,13.333l8.331,3.447l8.405-13.333
					c2.037,0.032,4.263-0.341,6.631-1.14v11.886l11.782-6.907V320.01c2.368-1.978,4.594-4.215,6.631-6.635l8.405,3.478l8.331-13.215
					l-8.405-3.477c1.226-2.755,2.157-5.528,2.747-8.241l11.886-6.968V273.17l-11.886,6.968c-0.59-2.022-1.521-3.702-2.747-5.02
					l8.405-13.333l-8.331-3.447l-8.405,13.332c-2.036-0.032-4.263,0.342-6.631,1.14v-11.885l-11.782,6.907v11.886
					c-2.368,1.978-4.594,4.215-6.631,6.635l-8.405-3.478l-8.331,13.215l8.405,3.478c-1.226,2.755-2.158,5.528-2.747,8.241
					l-11.886,6.968v11.781L38.026,319.59z M49.427,307.015c0-6.737,5.462-15.4,12.199-19.35c6.737-3.95,12.199-1.69,12.199,5.047
					c0,6.737-5.462,15.401-12.199,19.35C54.888,316.012,49.427,313.753,49.427,307.015z"/>
			</g>
		</g>
		<g>
			<g>
				<path style="fill:#1E7BD4;" d="M49.344,240.563c0.344,1.179,0.887,2.158,1.602,2.927l-4.9,7.773l4.857,2.01l4.9-7.773
					c1.187,0.018,2.485-0.199,3.866-0.665v6.929l6.869-4.027v-6.929c1.38-1.153,2.678-2.457,3.866-3.868l4.9,2.028l4.857-7.704
					l-4.9-2.027c0.715-1.606,1.258-3.223,1.602-4.805l6.929-4.062V213.5l-6.929,4.062c-0.344-1.179-0.887-2.158-1.602-2.927
					l4.9-7.773l-4.857-2.01l-4.9,7.773c-1.187-0.018-2.485,0.199-3.866,0.665v-6.929l-6.869,4.027v6.929
					c-1.38,1.153-2.678,2.457-3.866,3.868l-4.9-2.027l-4.857,7.704l4.9,2.028c-0.715,1.606-1.258,3.223-1.602,4.805l-6.929,4.062
					v6.868L49.344,240.563z M55.991,233.232c0-3.928,3.184-8.978,7.112-11.281c3.928-2.303,7.112-0.985,7.112,2.943
					c0,3.928-3.184,8.979-7.112,11.281C59.175,238.477,55.991,237.16,55.991,233.232z"/>
			</g>
		</g>
		<path style="fill:#ABD5FF;" d="M72.193,397.605l92.357,53.323c41.177,23.773,91.909,23.773,133.086,0l134.939-77.907
			c24.005-13.859,24.005-48.507,0-62.366l-92.357-53.322c-41.177-23.773-91.909-23.773-133.086,0L72.193,335.239
			C48.188,349.098,48.188,383.746,72.193,397.605z"/>
		<path style="fill:#82C1FF;" d="M391.683,328.785c15.312,8.685,15.35,23.007,0.084,31.829c-15.267,8.821-40.322,8.821-55.68,0
			c-15.358-8.822-15.395-23.144-0.083-31.829C351.315,320.101,376.371,320.101,391.683,328.785z"/>
		<g>
			<path style="fill:#EBA08D;" d="M365.221,276.842c0,0,0.413,12.24,4.482,25.083c4.068,12.843,7.543,30.128,7.922,33.849
				c0.379,3.721-1.08,8.522,1.2,12.723c2.281,4.201,4.646,5.459,5.281,4.41s1.181-4.65,0-8.491
				c-1.181-3.841-2.672-11.965-2.521-17.936c0.151-5.972-3.481-51.442-3.481-51.442L365.221,276.842z"/>
			<path style="fill:#E37154;" d="M378.105,275.039l-12.884,1.804c0,0,0.101,2.971,0.689,7.517
				c5.243-1.253,9.815-3.315,12.485-5.654C378.214,276.411,378.105,275.039,378.105,275.039z"/>
			<path style="fill:#EBA08D;" d="M340.235,268.737c0,0,6.41,50.143,4.861,58.475c-0.42,2.261-3.361,9.102-3.361,9.102
				s-4.801,4.261-4.081,5.101c0.72,0.84,7.082-2.101,7.082-2.101l3.421-5.221v3.841l0.995-0.54c0,0,1.226-3.661,0.986-6.001
				c-0.24-2.341-1.08-4.581-1.08-4.581s3.372-26.873,4.261-33.889c1.177-9.284-0.42-17.104-0.42-17.104L340.235,268.737z"/>
			<path style="fill:#E37154;" d="M340.235,268.737c0,0,0.751,5.876,1.677,13.937c3.423,1.852,7.558,2.739,11.839,2.916
				c-0.026-5.726-0.852-9.772-0.852-9.772L340.235,268.737z"/>
			<path style="fill:#4355A3;" d="M351.578,167.851c-5.271,1-8.125,3.834-11.275,8.819c-3.15,4.985-14.58,26.933-14.58,26.933
				l10.891,3.659l9.282-16.004L351.578,167.851z"/>
			<path style="fill:#303D75;" d="M342.787,180.647c0,0-3.762,8.97-1.015,17.722l4.125-7.112L342.787,180.647z"/>
			<circle style="fill:#303D75;" cx="368.549" cy="149.036" r="4.711"/>
			<path style="fill:#1B2342;" d="M364.357,147.35c-0.07,0-0.138,0.007-0.207,0.01c-0.199,0.521-0.312,1.085-0.312,1.676
				c0,2.602,2.109,4.711,4.711,4.711c0.07,0,0.138-0.007,0.207-0.01c0.199-0.521,0.312-1.085,0.312-1.676
				C369.068,149.459,366.959,147.35,364.357,147.35z"/>
			<path style="fill:#303D75;" d="M354.459,159.628c0,0-6.542-1.5-6.362-7.262c0.18-5.762,5.882-5.841,7.742-5.591
				c3.841-1.851,10.923-0.061,11.703,5.285s-3.354,8.818-3.477,11.434C363.941,166.11,354.459,159.628,354.459,159.628z"/>
			<path style="fill:#EBA08D;" d="M398.63,200.379l17.945-6.902c0,0,1.02-1.8,2.401-2.401c1.38-0.6,3.841-1.38,4.261-1.26
				c0.42,0.12-1.861,1.56-2.761,2.041l2.888,0.282l3.354-1.242l-1.12,3.448l-3.041,2.034l-5.381,0.7l-13.984,12.503
				C403.191,209.582,394.789,208.421,398.63,200.379z"/>
			<path style="fill:#4355A3;" d="M340.375,213.262c0,0-5.842,4.161-5.041,24.166s4.321,32.489,4.321,32.489
				s6.727,8.226,20.422,8.994c13.694,0.768,18.749-3.273,18.749-3.273s-0.48-34.569-3.801-51.974L340.375,213.262z"/>
			<path style="fill:#303D75;" d="M375.169,226.057l0.349-0.37c-0.155-0.693-0.319-1.369-0.494-2.021l-34.649-10.403
				c0,0-3.722,2.663-4.816,13.921C359.964,241.625,375.169,226.057,375.169,226.057z"/>
			<path style="fill:#4355A3;" d="M369.324,169.577c4.019,2.714,10.117,5.005,12.422,9.276s10.334,23.606,10.334,23.606l6.55-2.081
				c0,0-1.22,7.765,4.561,9.202c0,0-6.938,6.562-11.111,8.802c-4.173,2.241-8.734-5.201-10.654-8.002
				c-1.921-2.801-5.041-10.003-5.041-10.003l-4.739,11.049c0,0,4.259,7.036,5.539,12.877c0,0-10.903,11.483-26.807,5.681
				c-12.723-4.641-13.225-13.844-13.225-13.844s3.212-5.427,9.704-11.228l-1.799-11.292c0,0-6.523-7.728-0.761-15.65
				c5.762-7.922,7.282-10.123,7.282-10.123l4.441-0.6L369.324,169.577z"/>
			<path style="fill:none;stroke:#4F64BF;stroke-width:0.1927;stroke-miterlimit:10;" d="M353.658,201.659v9.122
				c0,0-4.421,14.156-5.531,18.281"/>
			<path style="fill:#4F64BF;" d="M353.658,204.915c0.4-9.307,16.513-24.349,16.513-24.349l-2.51-0.912l3.048-1.04v-8.16
				c-0.48-0.289-0.947-0.58-1.386-0.876l-13.305-2.327l-1.426,0.193l-5.05,7.169l2.836,2.641l-2.801-0.32
				C349.337,180.934,348.889,192.854,353.658,204.915z"/>
			<path style="fill:#303D75;" d="M392.08,202.46c-1.203,0.367-2.267,0.704-3.186,1.004c-1.914,0.624-3.828-0.943-3.579-2.941
				c0.527-4.233,1.114-10.347,0.498-12.818L392.08,202.46z"/>
			
				<ellipse transform="matrix(0.926 -0.3775 0.3775 0.926 -50.7934 149.2602)" style="fill:#F0F0F0;" cx="355.365" cy="204.204" rx="0.713" ry="1.083"/>
			
				<ellipse transform="matrix(0.926 -0.3775 0.3775 0.926 -52.9004 149.6731)" style="fill:#F0F0F0;" cx="355.365" cy="209.785" rx="0.713" ry="1.083"/>
			<path style="fill:#942E2E;" d="M384.106,352.908c0.636-1.049,1.181-4.65,0-8.491c-0.502-1.632-1.058-4.039-1.522-6.723
				l-0.001-0.001c0,0,1.284,7.564-0.457,7.804c-1.74,0.24-3.241-1.5-4.44-7.804l-0.002,0.003c-0.063,3.367-0.765,7.293,1.14,10.802
				C381.106,352.699,383.471,353.957,384.106,352.908z"/>
			<path style="fill:#942E2E;" d="M350.137,331.393c-0.132-1.291-0.447-2.549-0.703-3.42c-1.019,1.598-2.6,4.027-3.378,4.96
				c-1.014,1.217-2.088,1.68-3.409,1.195c-0.519,1.269-0.913,2.186-0.913,2.186s-4.801,4.261-4.081,5.101
				c0.72,0.84,7.082-2.101,7.082-2.101l3.421-5.221v3.841l0.995-0.54C349.152,337.395,350.378,333.734,350.137,331.393z"/>
			<polygon style="fill:#E8AB25;" points="342.788,206.456 328.093,219.629 298.841,209.928 313.536,196.755 			"/>
			<path style="fill:#E37154;" d="M311.108,210.553l3.11,0.959l0.42,2.311l0.27-1.71h0.48l0.183,3.217l1.717,0.716
				c0,0-2.623,0.928-4.21,0.508C310.23,215.799,310.568,212.504,311.108,210.553z"/>
			<path style="fill:#EBA08D;" d="M360.615,155.148c0.246,1.204,0.85,2.441,2.246,2.86c3.036-1.944,3.081,3.121,0.44,3.521
				c0.735,2.401,2.861,6.022,2.861,6.022l3.163,2.027l-4.708,6.315l-9.677-3.121l1.08-5.521l2.221-0.36l-0.18-1.68
				c0,0-4.744,0.69-4.741-3.661c0.002-3.051,0.24-5.942,0.24-7.622l0,0c0-1.229,1.082-2.174,2.3-2.011
				c0.458,0.061,0.961,0.126,1.486,0.189C358.98,152.303,360.284,153.534,360.615,155.148z"/>
			<path style="fill:#E37154;" d="M358.06,165.21c2.851-0.78,3.862-2.303,4.291-2.971c0.03,2.821-1.62,6.032-3.931,6.662
				L358.06,165.21z"/>
			<path style="fill:#FFFFFF;" d="M354.939,172.772c-1.12,5.922-3.083,15.844-1.28,28.888c1.28-9.282,6.556-20.536,10.958-25.767
				L354.939,172.772z"/>
			<path style="fill:#303D75;" d="M376.384,200.379l-2.487-5.786c-0.438-1.018-1.955-0.719-1.974,0.389l-0.279,16.446
				L376.384,200.379z"/>
		</g>
		<g>
			<g>
				<polygon style="fill:#7CB8F2;" points="241.349,203.299 80.377,297.902 78.723,296.954 78.723,173.23 241.349,79.575 
					243.002,80.524 				"/>
			</g>
			<g>
				<polygon style="fill:#FFFFFF;" points="243.002,204.247 80.377,297.902 80.377,174.179 243.002,80.524 				"/>
				<g>
					<g>
						
							<ellipse transform="matrix(0.5027 -0.8645 0.8645 0.5027 -121.5838 219.3966)" style="fill:#316596;" cx="129.891" cy="215.37" rx="53.309" ry="30.817"/>
						<path style="fill:#FF6868;" d="M166.348,182.944c-4.363-15.952-19.028-21.088-36.457-11.051v43.476L166.348,182.944z"/>
						<path style="fill:#D64D4D;" d="M158.828,226.653c5.52-10.736,8.849-22.4,8.849-33.044c0-3.959-0.469-7.521-1.33-10.669
							l-36.456,32.43L158.828,226.653z"/>
						<path style="fill:#E8AB25;" d="M158.828,226.653l-28.937-11.283l15.425,30.804
							C150.563,240.448,155.176,233.757,158.828,226.653z"/>
						<path style="fill:#FF9100;" d="M129.891,258.846c5.497-3.165,10.714-7.531,15.425-12.673l-15.425-30.804l-36.976,30.268
							C96.51,263.273,111.697,269.324,129.891,258.846z"/>
					</g>
					<g>
						<g>
							<path style="fill:#7CB8F2;" d="M229.958,130.287L175.6,161.591c-0.726,0.418-1.315,0.08-1.315-0.756l0,0
								c0-0.836,0.589-1.853,1.315-2.271l54.358-31.304c0.726-0.418,1.315-0.08,1.315,0.756l0,0
								C231.274,128.852,230.685,129.868,229.958,130.287z"/>
							<path style="fill:#7CB8F2;" d="M229.958,138.334L175.6,169.638c-0.726,0.418-1.315,0.08-1.315-0.756l0,0
								c0-0.836,0.589-1.853,1.315-2.271l54.358-31.304c0.726-0.418,1.315-0.08,1.315,0.756l0,0
								C231.274,136.898,230.685,137.915,229.958,138.334z"/>
							<path style="fill:#7CB8F2;" d="M229.958,146.38L175.6,177.685c-0.726,0.418-1.315,0.08-1.315-0.756l0,0
								c0-0.836,0.589-1.853,1.315-2.271l54.358-31.304c0.726-0.418,1.315-0.08,1.315,0.756l0,0
								C231.274,144.945,230.685,145.962,229.958,146.38z"/>
							<path style="fill:#7CB8F2;" d="M229.958,154.427L175.6,185.732c-0.726,0.418-1.315,0.08-1.315-0.756l0,0
								c0-0.836,0.589-1.853,1.315-2.271l54.358-31.304c0.726-0.418,1.315-0.08,1.315,0.756l0,0
								C231.274,152.992,230.685,154.009,229.958,154.427z"/>
						</g>
						<g>
							
								<ellipse transform="matrix(0.5027 -0.8645 0.8645 0.5027 -83.0379 251.7693)" style="fill:#175FA3;" cx="177.3" cy="198.055" rx="4.254" ry="2.459"/>
							
								<ellipse transform="matrix(0.5027 -0.8645 0.8645 0.5027 -70.3599 259.1336)" style="fill:#7CB8F2;" cx="190.04" cy="190.718" rx="4.254" ry="2.459"/>
							
								<ellipse transform="matrix(0.5027 -0.8645 0.8645 0.5027 -57.682 266.4979)" style="fill:#104170;" cx="202.779" cy="183.382" rx="4.254" ry="2.459"/>
							
								<ellipse transform="matrix(0.5027 -0.8645 0.8645 0.5027 -45.004 273.8622)" style="fill:#1E7BD4;" cx="215.519" cy="176.045" rx="4.254" ry="2.459"/>
							
								<ellipse transform="matrix(0.5027 -0.8645 0.8645 0.5027 -32.326 281.2265)" style="fill:#D4EAFF;" cx="228.258" cy="168.709" rx="4.254" ry="2.459"/>
						</g>
					</g>
				</g>
				
					<line style="fill:none;stroke:#7CB8F2;stroke-width:0.8447;stroke-miterlimit:10;" x1="83.001" y1="184.167" x2="241.372" y2="92.963"/>
				
					<ellipse transform="matrix(0.5027 -0.8645 0.8645 0.5027 -108.0688 163.6101)" style="fill:none;stroke:#7CB8F2;stroke-width:0.8447;stroke-miterlimit:10;" cx="88.163" cy="175.73" rx="2.622" ry="1.516"/>
				
					<ellipse transform="matrix(0.5027 -0.8645 0.8645 0.5027 -99.1645 168.7824)" style="fill:none;stroke:#7CB8F2;stroke-width:0.8447;stroke-miterlimit:10;" cx="97.111" cy="170.578" rx="2.622" ry="1.516"/>
				
					<ellipse transform="matrix(0.5027 -0.8645 0.8645 0.5027 -90.2601 173.9547)" style="fill:none;stroke:#7CB8F2;stroke-width:0.8447;stroke-miterlimit:10;" cx="106.058" cy="165.425" rx="2.622" ry="1.516"/>
			</g>
		</g>
		<path style="fill:#82C1FF;" d="M169.004,389.969c11.337,6.43,11.365,17.034,0.062,23.565c-11.303,6.531-29.854,6.531-41.224,0
			c-11.371-6.531-11.398-17.135-0.062-23.565C139.116,383.539,157.667,383.539,169.004,389.969z"/>
		<path style="fill:#82C1FF;" d="M261.916,337.293c15.312,8.685,15.35,23.007,0.084,31.829c-15.267,8.821-40.322,8.821-55.68,0
			c-15.358-8.822-15.395-23.144-0.083-31.829C221.549,328.608,246.605,328.608,261.916,337.293z"/>
		<polygon style="fill:#316596;" points="312.92,348.798 242.4,308.019 242.4,230.638 312.92,271.418 		"/>
		<g>
			<g>
				<polygon style="fill:#4D4D4D;" points="302.131,346.775 286.992,355.489 286.992,296.044 302.131,287.33 				"/>
				<path style="fill:#3B3B3B;" d="M299.815,294.385l-10.501,6.045c-0.374,0.215-0.677-0.048-0.677-0.588l0,0
					c0-0.54,0.303-1.153,0.677-1.368l10.501-6.045c0.374-0.215,0.677,0.048,0.677,0.588l0,0
					C300.493,293.557,300.189,294.17,299.815,294.385z"/>
				<path style="fill:#3B3B3B;" d="M299.815,298.665l-10.501,6.045c-0.374,0.215-0.677-0.048-0.677-0.588l0,0
					c0-0.54,0.303-1.153,0.677-1.368l10.501-6.045c0.374-0.215,0.677,0.048,0.677,0.588l0,0
					C300.493,297.837,300.189,298.449,299.815,298.665z"/>
				<path style="fill:#3B3B3B;" d="M299.815,302.944l-10.501,6.045c-0.374,0.215-0.677-0.048-0.677-0.588l0,0
					c0-0.54,0.303-1.153,0.677-1.368l10.501-6.045c0.374-0.215,0.677,0.048,0.677,0.588l0,0
					C300.493,302.116,300.189,302.729,299.815,302.944z"/>
				<path style="fill:#3B3B3B;" d="M299.815,307.224l-10.501,6.045c-0.374,0.215-0.677-0.048-0.677-0.588l0,0
					c0-0.54,0.303-1.153,0.677-1.368l10.501-6.045c0.374-0.215,0.677,0.048,0.677,0.588l0,0
					C300.493,306.396,300.189,307.008,299.815,307.224z"/>
				<path style="fill:#3B3B3B;" d="M299.815,311.503l-10.501,6.045c-0.374,0.215-0.677-0.048-0.677-0.588v0
					c0-0.54,0.303-1.153,0.677-1.368l10.501-6.045c0.374-0.215,0.677,0.048,0.677,0.588l0,0
					C300.493,310.675,300.189,311.288,299.815,311.503z"/>
				<path style="fill:#3B3B3B;" d="M299.815,315.782l-10.501,6.045c-0.374,0.215-0.677-0.048-0.677-0.588l0,0
					c0-0.54,0.303-1.153,0.677-1.368l10.501-6.045c0.374-0.215,0.677,0.048,0.677,0.588l0,0
					C300.493,314.954,300.189,315.567,299.815,315.782z"/>
				<path style="fill:#3B3B3B;" d="M299.815,340.433l-10.501,6.045c-0.374,0.215-0.677-0.048-0.677-0.588l0,0
					c0-0.54,0.303-1.153,0.677-1.368l10.501-6.045c0.374-0.215,0.677,0.048,0.677,0.588l0,0
					C300.493,339.605,300.189,340.218,299.815,340.433z"/>
				<polygon style="fill:#3B3B3B;" points="300.49,334.59 288.633,341.415 288.633,324.297 300.49,317.473 				"/>
			</g>
			<polygon style="fill:#2E2E2E;" points="247.012,332.312 286.992,355.489 286.992,296.044 247.012,272.867 			"/>
			<polygon style="fill:#292929;" points="262.151,264.152 302.131,287.33 286.992,296.044 247.012,272.867 			"/>
		</g>
		<polygon style="fill:#498FD1;" points="312.92,348.798 319.54,345.065 319.54,267.684 312.92,271.418 		"/>
		<g>
			<g>
				<path style="fill:#171717;" d="M166.684,331.566l21.837-12.531l26.305,14.823l5.625-0.86c0,0,1.77,0.893,1.77,3.282
					c0,1.079-0.579,2.074-1.517,2.607l-26.243,14.904c-1.292,0.734-2.876,0.725-4.16-0.023l-28.94-16.854
					c-1.223-0.712-1.976-2.021-1.976-3.437c0-2.504,2.878-3.544,2.878-3.544L166.684,331.566z"/>
				<path style="fill:#292929;" d="M219.965,332.553l-29.438-16.588c-1.244-0.701-2.765-0.695-4.003,0.016l-24.024,13.797
					c-1.385,0.796-1.391,2.792-0.011,3.596l28.432,16.556c0.9,0.524,2.01,0.53,2.915,0.016l26.132-14.841
					C220.96,334.541,220.958,333.112,219.965,332.553z"/>
				<path style="fill:#171717;" d="M190.804,336.417L190.804,336.417c1.053,0,1.907-0.854,1.907-1.907v-28.395
					c0-1.053-0.854-1.907-1.907-1.907l0,0c-1.053,0-1.907,0.854-1.907,1.907v28.395
					C188.897,335.563,189.751,336.417,190.804,336.417z"/>
				<path style="fill:#171717;" d="M160.891,283.024l32.226-18.493l38.82,21.875l8.302-1.269c0,0,2.612,1.318,2.612,4.844
					c0,1.592-0.855,3.061-2.239,3.847l-38.728,21.995c-1.906,1.083-4.244,1.07-6.139-0.033l-42.708-24.872
					c-1.805-1.051-2.916-2.983-2.916-5.072c0-3.695,4.248-5.23,4.248-5.23L160.891,283.024z"/>
				<path style="fill:#171717;" d="M152.227,202.672l35.682-20.696c1.574-0.913,3.335-0.831,4.741-0.086l0-0.002l0.033,0.019
					c0.073,0.039,0.145,0.079,0.216,0.123l3.26,1.846l-0.9,14.865v44.134l-40.697,23.197l-2.619,5.215l-0.96,0.547
					c-1.355,0.772-3.017,0.774-4.374,0.004l0,0c-0.67-0.38-1.084-1.091-1.084-1.861v-49.9v-5.772
					C145.526,209.51,148.079,205.078,152.227,202.672z"/>
				<g>
					<path style="fill:#171717;" d="M165.217,282.558c-0.972,0-1.76-0.788-1.76-1.76v-54.582c0-5.783,3.112-11.17,8.122-14.058
						l2.408-1.389c1.937-1.117,4.25-1.116,6.185,0.003c1.936,1.118,3.092,3.121,3.092,5.356v55.548c0,0.972-0.788,1.76-1.76,1.76
						s-1.76-0.788-1.76-1.76v-55.548c0-0.963-0.498-1.826-1.332-2.308c-0.833-0.481-1.83-0.482-2.665-0.001l-2.408,1.389
						c-3.923,2.262-6.36,6.48-6.36,11.008v54.582C166.977,281.769,166.189,282.558,165.217,282.558z"/>
				</g>
				<path style="fill:#292929;" d="M191.181,183.833l-35.682,20.696c-4.148,2.406-6.701,6.838-6.701,11.633v53.53
					c0,1.51,1.631,2.458,2.943,1.71l44.568-25.404c1.374-0.783,2.223-2.244,2.223-3.825v-54.105
					C198.532,184.295,194.444,181.94,191.181,183.833z"/>
				<path style="fill:#292929;" d="M239.521,284.48l-43.443-24.48c-1.835-1.034-4.08-1.025-5.907,0.024l-35.453,20.361
					c-2.044,1.174-2.053,4.12-0.016,5.306l41.96,24.433c1.328,0.773,2.966,0.782,4.302,0.023l38.564-21.903
					C240.989,287.414,240.986,285.305,239.521,284.48z"/>
			</g>
			<path style="fill:#2B2B2B;" d="M255.722,341.911c0,0,1.83,2.483,5.001,5.802c4.081,2.565,6.498,4.625,5.802,5.842
				c-1.348,2.353-15.12-3.276-15.12-3.276s-7.126-1.205-3.225-5.846L255.722,341.911z"/>
			<path style="fill:#2B2B2B;" d="M217.712,354.13c0,0,1.226,2.83,3.571,6.776c3.401,3.416,5.294,5.966,4.342,6.995
				c-1.842,1.991-13.999-6.587-13.999-6.587s-6.673-2.774-1.83-6.421L217.712,354.13z"/>
			<path style="fill:#303D75;" d="M199.295,248.767l29.69,21.161c7.834,5.584,13.475,13.727,15.948,23.024l11.949,48.959
				c0,0-2.121,5.641-9.883,3.081l-23.006-51.454l-44.755-26.106L199.295,248.767z"/>
			<path style="fill:#4355A3;" d="M156.896,264.131l0.321,7.693c0.173,4.148,2.562,7.882,6.255,9.778l37.058,19.019l6.38,56.055
				c0,0,2.767,3.057,7.348,1.529s4.582-5.85,4.582-5.85s1.513-47.861,1.894-56.024c0.381-8.163-11.744-16.015-18.225-20.806
				s-17.765-14.514-17.765-14.514L156.896,264.131z"/>
			<path style="fill:#313D40;" d="M239.397,206.356c0.92-2.881-5.411-4.881-7.752-5.661l-2.931,1.3
				C228.715,201.995,237.67,211.763,239.397,206.356z"/>
			<path style="fill:#FF6868;" d="M228.511,202.299l7.193-11.487c0,0,1.023-3.03,1.334-3.996c0.218-0.679,0.646-2.117,0.881-2.911
				c0.098-0.331,0.402-0.556,0.747-0.556l0,0c0.495,0,0.865,0.455,0.764,0.94l-0.701,3.355l4.278-1.725l4.037-3.416l0.518,4.447
				l-2.683,3.632c-0.333,0.451-0.784,0.801-1.303,1.013l-5.295,2.156l-2.324,15.045
				C235.956,208.796,228.615,205.335,228.511,202.299z"/>
			<path style="fill:#D64D4D;" d="M236.832,203.125c-2.473,0.088-5.441-1-5.778-4.887l-2.543,4.061
				c0.019,0.557,0.285,1.128,0.701,1.69l6.782,4.558L236.832,203.125z"/>
			<path style="fill:#3A5F61;" d="M199.369,196.053l20.401,19.345l8.944-13.404c0,0,5.588,5.557,10.683,4.361
				c0,0-6.692,19.298-10.304,26.29c-3.613,6.992-11.953,4.195-16.665,0.699s-13.133-9.929-13.133-9.929L199.369,196.053z"/>
			<path style="fill:#2A4B4D;" d="M203.739,205.675l-4.399,1.292l-0.044,16.449c0,0,8.421,6.433,13.133,9.929
				c1.088,0.807,2.371,1.576,3.743,2.196c-0.001-0.001-0.001-0.001-0.002-0.002C210.787,231.154,204.428,216.238,203.739,205.675z"
				/>
			<path style="fill:#3A5F61;" d="M155.751,214.893c0.016-1.726,0.745-3.364,2.012-4.536c3.673-3.396,11.754-10.498,18.398-13.723
				c6.761-3.282,13.936-3.656,16.997-3.646c1.08,0.004,2.134,0.277,3.074,0.808c2.392,1.35,6.777,4.571,7.406,10.285
				c0.729,6.629-1.941,34.52-2.83,43.423c-0.186,1.862-0.935,3.616-2.16,5.03c-4.781,5.522-18.386,20.679-30.469,18.919
				c-16.006-2.332-14.964-12.243-14.884-14.244c0.08-2.001,2.241-19.125,2.241-19.125L155.751,214.893z"/>
			<path style="fill:#2A4B4D;" d="M196.684,254.758c-16.214-1.403-23.918-13.618-27.467-31.453l-13.823,15.91
				c-0.482,3.851-2.031,16.306-2.099,17.994c-0.08,2.001-1.122,11.912,14.884,14.244
				C178.887,273.013,190.786,261.29,196.684,254.758z"/>
			<g>
				<path style="fill:#F0F0F0;" d="M187.56,209.437c0,0,2.792,21.175,3.814,26.487c1.678,8.725,3.001,13.436,3.925,16.197
					l-1.154,7.689l-6.442-2.041c0,0-4.173-9.042-4.101-21.786c0.036-6.435,1.14-25.467,1.14-25.467L187.56,209.437z"/>
				<path style="fill:#B0B0B0;" d="M187.56,209.437l-2.817,1.08c0,0-0.279,4.806-0.561,10.403c1.117-3.129,2.747-6.227,3.825-8.129
					C187.733,210.745,187.56,209.437,187.56,209.437z"/>
				<path style="fill:#F0F0F0;" d="M188.504,203.475c0,0-0.567,3.681-0.944,5.962c0,0-0.537,1.2-2.817,1.08l-3.961-4.321l0.8-2.721
					H188.504z"/>
			</g>
			<path style="fill:#5E878C;" d="M176.161,196.634c-1.554,1.355-3.447,8.708,2.688,14.276l4.569-5.194l3.206,0.08l1.4-2.024
				l3.351,0.543c0,0-0.244-6.436-6.552-8.242C179.977,194.686,177.647,195.338,176.161,196.634z"/>
			<path style="fill:#5E878C;" d="M193.398,219.31l6.889-3.912c0,0,0.078,9.148-2.799,10.977
				C193.347,229.007,193.398,219.31,193.398,219.31z"/>
			<path style="fill:#FF6868;" d="M179.763,190.942l-3.602,8.192c0,0,1.14,5.401,9.633,5.551c0,0,2.371-2.941,1.62-6.872
				S179.763,190.942,179.763,190.942z"/>
			<path style="fill:#D64D4D;" d="M186.977,196.591l-1.486,4.202c-0.276,0.78-1.256,1.011-1.86,0.445
				c-1.691-1.586-4.327-4.871-3.671-9.521L186.977,196.591z"/>
			<path style="fill:#FF6868;" d="M192.335,184.04l-0.96,6.062c0,0,1.17,5.551-2.821,7.442c-3.991,1.89-7.562-3.091-8.522-5.611
				s0.96-9.242,0.96-9.242L192.335,184.04z"/>
			<path style="fill:#104170;" d="M182.702,184.19c0,0-0.84,2.281-2.001,4.721l-0.691,1.528l-1.233-0.712
				c0,0-0.757-2.697-1.077-5.698c-0.32-3.001,0.122-4.601,2.321-4.521c1.2-3.201,3.121-3.881,6.002-3.441
				c2.881,0.44,5.882,1.6,7.522,3.001c1.64,1.4,1.969,5.468-2.171,6.282c-2.341,0.46-4.26-1.38-4.26-1.38
				S184.543,185.63,182.702,184.19z"/>
			
				<ellipse transform="matrix(0.8907 -0.4545 0.4545 0.8907 -66.8054 102.3084)" style="fill:#FF6868;" cx="179.387" cy="190.101" rx="1.936" ry="2.551"/>
			<path style="fill:#2A4B4D;" d="M219.77,215.398l-1.011,1.928c-0.638,1.217-2.428,1.06-2.844-0.249l-2.431-7.641L219.77,215.398z"
				/>
		</g>
		<g>
			<polygon style="fill:#71B0EB;" points="127.292,286.853 246.303,218.142 319.54,260.426 200.529,329.136 			"/>
			<polygon style="fill:#498FD1;" points="319.54,267.612 200.529,336.323 200.529,329.136 319.54,260.426 			"/>
			<polygon style="fill:#498FD1;" points="127.292,294.039 200.529,336.323 200.529,329.136 127.292,286.853 			"/>
			<polygon style="fill:#316596;" points="200.529,413.703 130.009,372.924 130.009,295.543 200.529,336.323 			"/>
			<polygon style="fill:#498FD1;" points="200.529,413.703 207.149,409.97 207.149,332.589 200.529,336.323 			"/>
			<polygon style="fill:#275178;" points="130.009,317.161 200.529,338.915 200.529,336.323 130.009,295.543 			"/>
		</g>
		<polygon style="fill:#316596;" points="169.979,278.103 185.37,269.217 206.589,281.534 191.198,290.42 		"/>
		<g>
			<polygon style="fill:#A1761A;" points="296.807,209.523 293.506,211.947 278.669,203.392 278.669,243.152 305.859,258.83 
				305.859,214.743 			"/>
			<polygon style="fill:#A1C9F0;" points="272.715,199.83 278.36,196.634 302.668,210.65 302.668,249.06 297.023,252.256 			"/>
			<polygon style="fill:#FFFFFF;" points="297.023,252.256 272.715,238.24 272.715,199.83 297.023,213.846 			"/>
			<polyline style="fill:none;stroke:#316596;stroke-width:0.3151;stroke-miterlimit:10;" points="273.77,199.219 298.078,213.235 
				298.078,251.645 			"/>
			<polyline style="fill:none;stroke:#316596;stroke-width:0.3151;stroke-miterlimit:10;" points="274.825,198.608 299.133,212.624 
				299.133,251.034 			"/>
			<polyline style="fill:none;stroke:#316596;stroke-width:0.3151;stroke-miterlimit:10;" points="275.88,197.997 300.188,212.013 
				300.188,250.423 			"/>
			<polyline style="fill:none;stroke:#316596;stroke-width:0.3151;stroke-miterlimit:10;" points="276.935,197.386 301.243,211.402 
				301.243,249.812 			"/>
			<polygon style="fill:#E8AB25;" points="305.824,214.758 298.598,218.515 298.598,262.607 305.824,258.85 			"/>
			<polygon style="fill:#FF9100;" points="289.545,213.301 286.244,215.724 271.407,207.169 271.407,246.929 298.598,262.607 
				298.598,218.52 			"/>
		</g>
		<g>
			<polygon style="fill:#A1761A;" points="279.581,215.472 276.28,217.895 261.443,209.34 261.443,249.1 288.633,264.778 
				288.633,220.691 			"/>
			<polygon style="fill:#A1C9F0;" points="255.489,205.778 261.134,202.582 285.442,216.598 285.442,255.008 279.797,258.204 			"/>
			<polygon style="fill:#FFFFFF;" points="279.797,258.204 255.489,244.188 255.489,205.778 279.797,219.794 			"/>
			<polyline style="fill:none;stroke:#316596;stroke-width:0.3151;stroke-miterlimit:10;" points="256.544,205.167 280.852,219.183 
				280.852,257.593 			"/>
			<polyline style="fill:none;stroke:#316596;stroke-width:0.3151;stroke-miterlimit:10;" points="257.599,204.556 281.907,218.572 
				281.907,256.982 			"/>
			<polyline style="fill:none;stroke:#316596;stroke-width:0.3151;stroke-miterlimit:10;" points="258.654,203.945 282.962,217.961 
				282.962,256.371 			"/>
			<polyline style="fill:none;stroke:#316596;stroke-width:0.3151;stroke-miterlimit:10;" points="259.709,203.334 284.017,217.35 
				284.017,255.76 			"/>
			<polygon style="fill:#E8AB25;" points="288.598,220.707 281.372,224.463 281.372,268.555 288.598,264.798 			"/>
			<polygon style="fill:#FF9100;" points="272.319,219.249 269.018,221.672 254.181,213.117 254.181,252.877 281.372,268.555 
				281.372,224.468 			"/>
		</g>
		<g>
			<path style="fill:#DEDEDE;" d="M252.384,247.43h-0.651c-0.188-0.181-0.411-0.353-0.681-0.509l-16.073-9.28
				c-1.776-1.026-4.683-1.026-6.46,0l-43.45,25.086c-0.339,0.196-0.612,0.415-0.822,0.65h-0.51v1.213h0
				c-0.001,0.677,0.443,1.354,1.332,1.867l16.074,9.28c1.776,1.026,4.683,1.026,6.46,0l43.45-25.086
				c0.899-0.519,1.341-1.205,1.33-1.89h0.002V247.43z"/>
			<path style="fill:#FFFFFF;" d="M234.978,236.338c-1.776-1.026-4.683-1.026-6.46,0l-43.45,25.086
				c-1.776,1.026-1.776,2.704,0,3.729l16.074,9.28c1.776,1.026,4.683,1.026,6.46,0l43.45-25.086c1.776-1.026,1.776-2.704,0-3.729
				L234.978,236.338z"/>
		</g>
		<path style="fill:#FFFFFF;" d="M185.099,278.747l6.585,3.797c0.948,0.547,2.121,0.521,3.044-0.068l1.489-0.949
			c0.384-0.245,0.557-0.716,0.422-1.152l-0.001-0.003c-0.315-1.016-1.004-1.875-1.926-2.405l-6.927-3.977l-1.552,0.899
			c-0.941,0.545-1.586,1.486-1.754,2.561l0,0C184.397,277.969,184.644,278.484,185.099,278.747z"/>
		<g>
			<polygon style="fill:#DEDEDE;" points="217.87,306.09 199.888,316.951 176.788,304.294 194.769,293.433 			"/>
			<g>
				
					<line style="fill:none;stroke:#C9C9C9;stroke-width:0.2968;stroke-miterlimit:10;" x1="180.284" y1="304.995" x2="196.102" y2="295.378"/>
				
					<line style="fill:none;stroke:#C9C9C9;stroke-width:0.2968;stroke-miterlimit:10;" x1="182.895" y1="306.425" x2="198.712" y2="296.808"/>
				
					<line style="fill:none;stroke:#C9C9C9;stroke-width:0.2968;stroke-miterlimit:10;" x1="185.505" y1="307.855" x2="201.322" y2="298.238"/>
				
					<line style="fill:none;stroke:#C9C9C9;stroke-width:0.2968;stroke-miterlimit:10;" x1="188.115" y1="309.285" x2="203.932" y2="299.669"/>
				
					<line style="fill:none;stroke:#C9C9C9;stroke-width:0.2968;stroke-miterlimit:10;" x1="190.725" y1="310.715" x2="206.542" y2="301.099"/>
				
					<line style="fill:none;stroke:#C9C9C9;stroke-width:0.2968;stroke-miterlimit:10;" x1="193.335" y1="312.146" x2="209.153" y2="302.529"/>
				
					<line style="fill:none;stroke:#C9C9C9;stroke-width:0.2968;stroke-miterlimit:10;" x1="195.946" y1="313.576" x2="211.763" y2="303.959"/>
				
					<line style="fill:none;stroke:#C9C9C9;stroke-width:0.2968;stroke-miterlimit:10;" x1="198.556" y1="315.006" x2="214.373" y2="305.389"/>
			</g>
		</g>
		<g>
			<path style="fill:#498FD1;" d="M175.926,286.203c3.435,1.948,3.444,5.162,0.019,7.141c-3.425,1.979-9.047,1.979-12.492,0
				c-3.446-1.979-3.454-5.193-0.019-7.141C166.869,284.255,172.491,284.255,175.926,286.203z"/>
			<path style="fill:#FFFFFF;" d="M162.785,280.51h2.618v1.472h-2.852c-1.305,0-2.364,1.058-2.364,2.364
				c0,1.305,1.058,2.364,2.364,2.364h2.852v1.472h-2.618c-2.119,0-3.836-1.717-3.836-3.836
				C158.949,282.227,160.667,280.51,162.785,280.51z"/>
			<g>
				<rect x="163.088" y="286.709" style="fill:#DEDEDE;" width="2.316" height="1.472"/>
				<rect x="163.088" y="280.51" style="fill:#DEDEDE;" width="2.316" height="1.472"/>
			</g>
			<path style="fill:#FFFFFF;" d="M175.682,279.018v9.792h-0.001c-0.005,0.874-0.584,1.75-1.741,2.419
				c-2.328,1.345-6.149,1.345-8.491,0c-1.164-0.669-1.75-1.544-1.759-2.419h-0.001v-9.792H175.682z"/>
			<path style="fill:#DEDEDE;" d="M173.927,276.583c2.335,1.324,2.341,3.508,0.013,4.854c-2.328,1.345-6.149,1.345-8.491,0
				c-2.342-1.345-2.348-3.529-0.013-4.854C167.771,275.259,171.592,275.259,173.927,276.583z"/>
			<path style="fill:#878787;" d="M173.502,276.935c2.101,1.133,2.106,3.001,0.011,4.151c-2.094,1.151-5.532,1.151-7.639,0
				c-2.107-1.151-2.112-3.019-0.011-4.151C167.963,275.802,171.401,275.802,173.502,276.935z"/>
			<path style="fill:#966947;" d="M165.863,277.795c2.101-1.133,5.538-1.133,7.639,0c0.852,0.459,1.353,1.04,1.515,1.644
				c-0.162,0.602-0.659,1.184-1.504,1.648c-2.095,1.151-5.532,1.151-7.639,0c-0.854-0.466-1.357-1.051-1.52-1.657
				C164.516,278.829,165.015,278.252,165.863,277.795z"/>
		</g>
		<g>
			<path style="fill:#4D4D4D;" d="M126.591,375.48v26.309h0.003c0.033,3.182,2.167,6.369,6.402,8.802
				c8.521,4.894,22.423,4.894,30.894,0c4.21-2.433,6.32-5.62,6.337-8.802h0.002V375.48H126.591z"/>
			<path style="fill:#919191;" d="M163.843,366.621c8.496,4.819,8.517,12.765,0.047,17.66c-8.471,4.894-22.373,4.894-30.894,0
				c-8.521-4.895-8.542-12.842-0.046-17.66C141.445,361.803,155.348,361.803,163.843,366.621z"/>
			<path style="fill:#4D4D4D;" d="M162.296,367.903c7.644,4.121,7.663,10.919,0.042,15.105c-7.621,4.186-20.129,4.186-27.796,0
				c-7.667-4.187-7.685-10.984-0.041-15.105C142.144,363.781,154.652,363.781,162.296,367.903z"/>
			<g>
				<path style="fill:#67AB2A;" d="M132.317,320.792c4.525-2.215,8.414,3.001,10.203,5.762c1.789,2.761,6.251,3.181,8.842,8.595
					c1.531,3.198-0.049,7.714,1.886,10.695c2.515,3.876,3.476,6.454,3.636,10.446c0.16,3.992-1.28,12.955-1.28,12.955l-16.76,7.64
					c0,0-2.925-8.34-2.205-13.151c0.72-4.812,2.57-7.772,2.205-11.053s-3.005-5.121-2.845-9.202c0.16-4.081,0.96-6.082-0.48-9.362
					C134.077,330.835,128.476,322.673,132.317,320.792z"/>
				<path style="fill:#3E5C24;" d="M156.841,358.678c-6.232,5.499-13.925,3.684-18.125-6.732l0,0
					c0.053,0.238,0.099,0.481,0.127,0.735c0.365,3.281-1.485,6.242-2.205,11.053c-0.72,4.812,2.205,13.151,2.205,13.151l16.76-7.64
					C155.603,369.245,156.596,363.061,156.841,358.678z"/>
				<path style="fill:none;stroke:#3E5C24;stroke-width:0.4268;stroke-miterlimit:10;" d="M135.087,322.346
					c8.846,9.362,14.727,12.085,12.807,49.074"/>
			</g>
			<path style="fill:#7DC240;" d="M145.013,381.991c0,0-2.706-8.669,2.667-11.771c5.373-3.102,7.366-3.307,7.896-9.371
				c0.53-6.064,2.685-9.259,7.584-10.137s5.039-5.56,7.07-8.08s7.342-4.981,10.928-2.311c3.586,2.671-3.616,6.992-4.336,11.553
				c-0.72,4.561,0.635,5.978-1.56,9.291c-2.195,3.313-5.155,2.191-5.762,6.433c-0.6,4.201-0.839,6.198-1.664,9.401
				c-0.825,3.202-5.378,8.444-17.812,9.149L145.013,381.991z"/>
			<path style="fill:none;stroke:#4C7528;stroke-width:0.4268;stroke-miterlimit:10;" d="M178.341,341.231
				c-11.283,6.082-22.886,28.808-23.206,44.172"/>
			<path style="fill:#4C7528;" d="M167.377,378.205c-11.28,2.483-18.218-4.732-13.492-12.036l0,0
				c-1.224,1.474-3.178,2.303-6.205,4.051c-5.373,3.102-2.667,11.771-2.667,11.771l5.011,4.157
				C160.994,385.526,165.824,381.374,167.377,378.205z"/>
			<path style="fill:#7DC240;" d="M151.494,386.019c0,0,3.187-6.076-5.893-12.873c-1.302-0.975-2.756-4.4-3.173-8.335
				c-0.417-3.935-3.714-6.336-6.538-6.816c-2.824-0.48-1.56-5.161-6.482-9.843c-4.921-4.681-11.271-3.361-11.271,0
				c0,3.361,6.007,3.87,7.79,8.162s-1.693,5.04,0.664,9.242c2.357,4.202,1.761,7.067,2.257,10.726
				C129.453,380.743,137.451,387.523,151.494,386.019z"/>
			<path style="fill:none;stroke:#4C7528;stroke-width:0.4268;stroke-miterlimit:10;" d="M120.526,347.193
				c0,0,15.394,8.675,19.61,37.954"/>
		</g>
		<g>
			<path style="fill:#313D40;" d="M181.302,277.614c1.782,1.019,6.017-6.841,6.017-6.841l-1.453-1.552
				C185.867,269.222,178.709,276.132,181.302,277.614z"/>
			<path style="fill:#FF6868;" d="M186.842,270.235l1.442,1.629l4.981,2.39l2.401,4.441l-3.492,2.411l-2.31-2.771
				c0,0-5.091-0.636-4.966-3.599l-3.996-2.323C180.902,272.413,183.25,268.93,186.842,270.235z"/>
			<path style="fill:#3A5F61;" d="M158.736,210.525c0,0,6.502,0.912,9.623,9.494c3.121,8.582,1.68,32.769,1.68,32.769l16.803,17.447
				c0,0-5.28,2.539-5.54,7.38c0,0-21.783-12.749-25.105-16.357s-3.202-12.43-3.442-18.852
				C152.515,235.984,152.331,210.077,158.736,210.525z"/>
		</g>
		<g>
			<polygon style="fill:#104170;" points="223.207,280.003 241.516,290.574 259.826,280.003 259.826,278.879 241.516,269.432 
				223.207,278.879 			"/>
			<polygon style="fill:#175FA3;" points="223.207,278.879 241.516,289.45 259.826,278.879 241.516,268.309 			"/>
			<polygon style="fill:#1D77CC;" points="262.618,249.968 211.047,281.806 209.271,280.639 209.271,236.581 262.618,205.91 
				264.394,207.077 			"/>
			<polygon style="fill:#175FA3;" points="264.394,251.134 211.047,281.806 211.047,237.748 264.394,207.077 			"/>
			<polygon style="fill:#1D77CC;" points="244.996,247.468 233.774,253.92 233.774,244.652 244.996,238.2 			"/>
			<polygon style="fill:#104170;" points="209.271,236.581 211.047,237.748 211.047,281.806 209.271,280.639 			"/>
			<g>
				<path style="fill:#104170;" d="M239.385,238.271v40.501c0,0.316,0.208,0.632,0.622,0.871c0.83,0.479,2.188,0.479,3.018,0
					c0.415-0.24,0.623-0.555,0.623-0.871v-40.501H239.385z"/>
				<ellipse style="fill:#1D77CC;" cx="241.516" cy="238.271" rx="2.134" ry="1.232"/>
			</g>
		</g>
		<g>
			<polygon style="fill:#FFFFFF;" points="227.568,297.456 211.561,311.06 186.73,302.272 202.736,288.667 			"/>
			<g>
				
					<line style="fill:none;stroke:#C9C9C9;stroke-width:0.2968;stroke-miterlimit:10;" x1="190.293" y1="302.402" x2="204.364" y2="290.374"/>
				
					<line style="fill:none;stroke:#C9C9C9;stroke-width:0.2968;stroke-miterlimit:10;" x1="193.099" y1="303.395" x2="207.17" y2="291.367"/>
				
					<line style="fill:none;stroke:#C9C9C9;stroke-width:0.2968;stroke-miterlimit:10;" x1="195.905" y1="304.388" x2="209.975" y2="292.36"/>
				
					<line style="fill:none;stroke:#C9C9C9;stroke-width:0.2968;stroke-miterlimit:10;" x1="198.711" y1="305.382" x2="212.781" y2="293.353"/>
				
					<line style="fill:none;stroke:#C9C9C9;stroke-width:0.2968;stroke-miterlimit:10;" x1="201.517" y1="306.375" x2="215.587" y2="294.346"/>
				
					<line style="fill:none;stroke:#C9C9C9;stroke-width:0.2968;stroke-miterlimit:10;" x1="204.322" y1="307.368" x2="218.393" y2="295.339"/>
				
					<line style="fill:none;stroke:#C9C9C9;stroke-width:0.2968;stroke-miterlimit:10;" x1="207.128" y1="308.361" x2="221.199" y2="296.332"/>
				
					<line style="fill:none;stroke:#C9C9C9;stroke-width:0.2968;stroke-miterlimit:10;" x1="209.934" y1="309.354" x2="224.004" y2="297.325"/>
			</g>
		</g>
		<g>
			<path style="fill:#7CB8F2;" d="M329.726,149.517v-9.647c0-2.604-1.634-5.656-3.65-6.817l-28.173-16.219
				c-0.853-0.491-1.636-0.561-2.258-0.285l-0.002-0.002l-0.019,0.011c-0.107,0.049-0.21,0.106-0.307,0.176l-3.466,1.985l1.803,4.248
				l0.599-0.44v27.533c0,2.604,1.634,5.656,3.65,6.817l27.179,15.646l-1.305,0.489l0.847,2.493l3.737-2.134l-0.001-0.001
				c0.832-0.385,1.366-1.402,1.366-2.888v-9.646l6.729,2.644l3.87-2.202L329.726,149.517z"/>
			<path style="fill:#FFFFFF;" d="M336.456,163.481l-10.599-11.761v-9.647c0-2.604-1.634-5.656-3.65-6.817l-28.173-16.219
				c-2.016-1.161-3.651,0.009-3.651,2.614v30.612c0,2.604,1.634,5.656,3.651,6.817l28.173,16.219c2.016,1.161,3.65-0.009,3.65-2.614
				v-9.646L336.456,163.481z"/>
			<g>
				<g>
					<path style="fill:#FFB621;" d="M309.621,132.001l-3.345-1.918l0,3.516c-4.513-1.949-6.715-0.238-6.715,3.281
						c0,8.31,11.093,12.081,11.093,15.633c0,1.084-0.894,1.308-3.178-0.002c-2.258-1.295-4.712-3.598-6.438-5.9l-1.811,3.629
						c1.616,2.206,4.261,4.652,7.049,6.474l0,3.422l3.345,1.918l0-3.552c4.346,1.759,6.466,0.034,6.466-3.355
						c0-8.249-11.064-12.036-11.065-15.458c0-1.12,0.838-1.532,3.149-0.206c1.701,0.975,3.54,2.605,5.408,4.825l1.697-3.723
						c-1.559-1.949-3.594-3.756-5.657-5.13L309.621,132.001z"/>
				</g>
			</g>
		</g>
	</g>
</g>
</svg>
